<?xml version="1.0" standalone="no"?>
<!DOCTYPE svg PUBLIC "-//W3C//DTD SVG 20010904//EN"
 "http://www.w3.org/TR/2001/REC-SVG-20010904/DTD/svg10.dtd">
<svg version="1.0" xmlns="http://www.w3.org/2000/svg"
 width="1034.000000pt" height="1034.000000pt" viewBox="0 0 1034.000000 1034.000000"
 preserveAspectRatio="xMidYMid meet">
<metadata>
Created by potrace 1.14, written by Peter Selinger 2001-2017
</metadata>
<g transform="translate(0.000000,1034.000000) scale(0.100000,-0.100000)"
fill="#000000" stroke="none">
<path d="M5009 9646 c-4 -3 -80 -14 -149 -22 -14 -1 -25 -3 -25 -4 0 -1 -7 -3
-15 -5 -17 -3 -127 -35 -150 -43 -8 -3 -17 -6 -20 -7 -3 -1 -24 -9 -47 -19
-23 -10 -44 -16 -45 -14 -2 1 -16 -7 -32 -19 -16 -13 -35 -23 -42 -23 -7 0
-19 -6 -26 -12 -7 -7 -26 -20 -43 -28 -16 -8 -39 -23 -49 -32 -11 -10 -25 -18
-32 -18 -7 0 -21 -11 -32 -25 -11 -14 -23 -25 -26 -25 -16 0 -143 -124 -204
-200 -29 -36 -57 -70 -62 -77 -6 -7 -10 -17 -10 -22 0 -6 -6 -14 -13 -18 -7
-4 -21 -26 -32 -48 -11 -22 -29 -56 -41 -75 -12 -19 -22 -38 -23 -42 -1 -4
-10 -28 -21 -54 -11 -25 -20 -50 -20 -55 0 -5 -5 -9 -11 -9 -5 0 -8 -4 -5 -8
4 -7 -16 -92 -31 -132 -4 -8 -6 -18 -5 -21 1 -4 -3 -21 -8 -38 -12 -42 -23
-160 -23 -256 0 -80 10 -213 18 -225 3 -4 6 -22 9 -41 9 -69 73 -271 89 -277
4 -2 7 -8 7 -14 0 -15 43 -102 53 -106 4 -2 7 -9 7 -16 0 -7 9 -22 20 -34 11
-12 20 -24 19 -27 -2 -14 109 -152 172 -214 76 -74 139 -131 145 -131 2 0 26
-15 52 -33 26 -18 72 -47 102 -63 30 -16 57 -32 58 -36 2 -5 9 -8 16 -8 7 0
40 -13 74 -30 34 -16 68 -30 75 -30 6 0 27 -9 46 -21 19 -11 43 -23 55 -25 11
-2 23 -9 26 -15 4 -6 10 -10 14 -10 3 1 41 -15 84 -35 136 -64 207 -97 212
-99 3 -1 59 -27 125 -59 113 -55 212 -102 415 -198 47 -22 114 -54 150 -72 36
-17 67 -31 70 -31 3 -1 46 -21 96 -45 l91 -44 78 -126 c43 -69 96 -154 119
-189 23 -36 46 -73 51 -83 28 -49 164 -269 191 -308 17 -25 33 -50 35 -55 2
-6 24 -43 49 -83 25 -40 50 -81 55 -91 6 -9 29 -46 51 -82 111 -173 354 -570
354 -578 0 -5 4 -11 8 -13 8 -3 35 -45 116 -181 11 -18 34 -54 51 -82 31 -49
109 -174 275 -445 46 -74 103 -166 127 -203 45 -69 45 -69 43 -155 -3 -163 -9
-317 -14 -340 -3 -12 0 -22 5 -22 6 0 7 -5 3 -11 -7 -11 -15 -182 -17 -366 -1
-50 -6 -89 -10 -86 -5 3 -4 -4 2 -14 6 -11 8 -23 5 -26 -3 -3 -7 -67 -9 -143
-2 -77 -7 -215 -11 -309 -11 -296 -8 -446 12 -542 12 -65 15 -80 19 -98 2 -11
8 -32 14 -47 6 -16 8 -28 5 -28 -4 0 -2 -6 3 -12 5 -7 16 -33 23 -58 26 -81
151 -317 181 -340 3 -3 27 -31 53 -63 64 -79 108 -121 219 -209 12 -10 27 -22
34 -28 7 -5 17 -10 23 -10 5 0 10 -4 10 -8 0 -5 10 -14 23 -20 12 -6 55 -29
95 -51 39 -22 72 -38 72 -35 0 3 10 -2 22 -10 12 -9 30 -16 40 -16 10 0 18 -5
18 -10 0 -6 3 -9 8 -8 4 1 34 -6 67 -17 33 -10 65 -20 70 -21 47 -13 146 -29
163 -26 6 2 12 -1 12 -5 0 -15 343 -6 398 11 9 3 33 8 52 11 19 3 54 13 78 21
24 8 48 12 53 9 5 -4 9 -1 9 4 0 6 7 11 15 11 8 0 40 12 72 27 32 14 61 27 66
28 4 2 10 4 15 5 4 1 10 2 15 1 4 0 7 3 7 8 0 5 15 14 33 22 17 7 34 16 37 19
3 3 23 17 45 30 22 13 42 26 45 29 3 4 21 17 40 30 19 14 39 30 43 38 4 7 12
13 17 13 7 0 90 83 165 164 51 56 174 256 158 256 -4 0 0 5 10 11 9 5 17 16
17 23 0 12 18 56 39 96 5 9 12 31 16 50 4 19 11 40 15 45 5 6 8 13 8 18 1 6 9
51 28 137 13 65 25 310 14 310 -3 0 -5 19 -6 43 -1 46 -9 108 -19 147 -4 14
-7 34 -6 45 0 10 -4 24 -8 30 -5 5 -12 26 -16 45 -4 19 -10 40 -13 45 -4 6 -7
15 -8 21 -4 28 -99 221 -120 245 -8 8 -14 20 -14 25 0 5 -16 29 -35 54 -19 25
-45 58 -58 75 -40 54 -184 190 -244 230 -32 22 -60 43 -63 46 -3 3 -32 21 -65
38 -33 18 -67 36 -75 41 -8 5 -40 20 -70 33 -30 14 -75 33 -100 44 -25 11 -60
26 -77 33 -18 7 -33 16 -33 21 0 5 -3 8 -7 7 -5 -1 -35 11 -68 27 -33 16 -62
29 -65 30 -3 0 -29 13 -57 28 -29 15 -53 25 -53 21 0 -3 -7 2 -16 10 -8 9 -22
16 -30 16 -8 0 -14 5 -14 10 0 6 -3 9 -7 8 -5 -2 -55 20 -113 48 -58 28 -180
88 -272 133 -92 44 -171 81 -177 81 -6 0 -11 5 -11 12 0 6 -3 9 -6 6 -3 -3
-35 9 -70 28 -36 19 -72 34 -80 34 -8 0 -14 3 -14 8 0 4 -27 18 -60 32 -33 14
-60 28 -60 33 0 4 -6 7 -14 7 -8 0 -33 10 -55 22 -39 21 -76 68 -141 179 -8
15 -82 135 -165 268 -82 133 -157 254 -166 269 -9 15 -55 89 -103 165 -47 76
-86 142 -86 147 0 5 -3 10 -7 12 -7 2 -93 139 -144 227 -8 14 -17 30 -22 35
-14 20 -52 81 -97 155 -58 96 -57 94 -195 316 -65 105 -131 213 -148 240 -16
28 -39 64 -51 80 -11 17 -21 32 -21 35 -1 3 -12 23 -26 45 -14 22 -74 118
-132 213 l-107 173 4 157 c2 86 5 157 6 157 1 0 2 15 3 33 1 17 -2 32 -6 32
-5 0 -5 9 -2 20 6 19 10 136 19 551 2 86 6 161 10 167 3 6 2 13 -4 17 -6 4 -8
10 -5 15 6 10 17 352 18 545 0 121 -8 226 -22 295 -5 25 -7 48 -5 52 2 4 0 9
-5 12 -5 3 -12 23 -16 43 -12 54 -11 51 -39 126 -32 84 -95 211 -107 215 -5 2
-9 8 -9 14 0 11 -72 115 -112 162 -47 56 -137 143 -217 208 -12 10 -21 14 -21
10 0 -4 -4 -2 -8 3 -10 15 -79 65 -89 65 -4 0 -19 9 -33 20 -14 11 -33 20 -42
20 -10 0 -18 4 -18 9 0 5 -15 14 -32 21 -18 7 -52 21 -75 31 -24 11 -49 19
-56 19 -8 0 -17 3 -21 8 -4 4 -12 8 -17 8 -5 1 -11 3 -14 4 -3 1 -8 3 -12 4
-71 17 -116 28 -138 31 -11 2 -20 4 -20 5 0 7 -329 22 -336 16z m4276 -6706
c3 -5 1 -10 -4 -10 -6 0 -11 5 -11 10 0 6 2 10 4 10 3 0 8 -4 11 -10z"/>
<path d="M2440 4039 c-14 -3 -54 -20 -90 -36 -98 -45 -131 -60 -450 -203 -162
-73 -318 -143 -347 -156 -28 -13 -57 -24 -62 -24 -6 0 -11 -4 -11 -9 0 -5 -10
-11 -22 -14 -21 -4 -250 -106 -433 -192 -42 -19 -77 -35 -80 -35 -9 0 -225
-107 -280 -138 -128 -75 -286 -216 -382 -342 -175 -230 -273 -515 -275 -801
-2 -271 67 -518 204 -737 48 -75 46 -72 121 -162 53 -64 188 -191 211 -199 6
-2 13 -7 16 -11 22 -29 206 -132 305 -169 33 -13 69 -27 80 -31 68 -29 292
-64 410 -64 581 0 1105 375 1289 924 26 79 29 90 51 212 17 91 18 157 10 683
-3 220 -7 614 -9 876 -3 453 -5 477 -24 515 -44 86 -149 137 -232 113z"/>
</g>
</svg>
